# xmcd
#
# Track frame offsets: 
#        150
#        13039
#        29888
#        46319
#        57748
#        74492
#        85960
#        98263
#
# Disc length: 1510 seconds
#
# Revision: 0
# Processed by: cddbd v1.5.2PL0 Copyright (c) Steve Scherf et al.
# Submitted via: ExactAudioCopy v0.95b4
#
DISCID=6b05e408
DTITLE=Jeanann Hand - Unapologize
DYEAR=2008
DGENRE=Country
TTITLE0=Mercenary Mary
TTITLE1=Unapologize
TTITLE2=Secret
TTITLE3=Hold Me In Your Heart
TTITLE4=Daddy's Arms
TTITLE5=Truth
TTITLE6=You Ain't Woman Enough
TTITLE7=Last Time
EXTD=
EXTT0=
EXTT1=
EXTT2=
EXTT3=
EXTT4=
EXTT5=
EXTT6=
EXTT7=
PLAYORDER=
